<svg width="15" height="23" viewBox="0 0 15 23" fill="none" xmlns="http://www.w3.org/2000/svg">
<path d="M7.5 0C5.24148 0 3.40909 1.93164 3.40909 4.3125V11.5C3.40909 13.8809 5.24148 15.8125 7.5 15.8125C9.75852 15.8125 11.5909 13.8809 11.5909 11.5V4.3125C11.5909 1.93164 9.75852 0 7.5 0ZM2.04545 9.70312C2.04545 9.10566 1.58949 8.625 1.02273 8.625C0.455966 8.625 0 9.10566 0 9.70312V11.5C0 15.5025 2.82102 18.8088 6.47727 19.3344V20.8437H4.43182C3.86506 20.8437 3.40909 21.3244 3.40909 21.9219C3.40909 22.5193 3.86506 23 4.43182 23H7.5H10.5682C11.1349 23 11.5909 22.5193 11.5909 21.9219C11.5909 21.3244 11.1349 20.8437 10.5682 20.8437H8.52273V19.3344C12.179 18.8088 15 15.5025 15 11.5V9.70312C15 9.10566 14.544 8.625 13.9773 8.625C13.4105 8.625 12.9545 9.10566 12.9545 9.70312V11.5C12.9545 14.676 10.5128 17.25 7.5 17.25C4.48722 17.25 2.04545 14.676 2.04545 11.5V9.70312Z" fill="white"/>
</svg>
