<svg width="384" height="398" viewBox="0 0 384 398" fill="none" xmlns="http://www.w3.org/2000/svg">
<path d="M301.658 0H0V397.64H301.658V0Z" fill="#CBB292"/>
<path d="M54.847 0H0V397.64H54.847V0Z" fill="#7F6E5D"/>
<path d="M253.667 68.5587H102.838V150.829H253.667V68.5587Z" fill="#EFEBDE"/>
<path d="M226.244 89.1262H130.261V102.838H226.244V89.1262Z" fill="#D5D0BB"/>
<path d="M226.244 116.55H130.261V130.261H226.244V116.55Z" fill="#D5D0BB"/>
<path d="M314.1 299.879C319.739 287.176 332.192 275.439 347.176 275.439C367.351 275.439 381.881 291.855 383.708 311.418C383.708 311.418 384.698 316.277 382.527 325.018C379.571 336.924 372.629 347.503 363.26 355.574L314.1 397.64L264.946 355.574C255.577 347.503 248.635 336.924 245.679 325.018C243.508 316.277 244.497 311.418 244.497 311.418C246.319 291.855 260.849 275.439 281.024 275.439C296.008 275.439 308.461 287.176 314.1 299.879Z" fill="#E1687E"/>
</svg>
